<svg width="250" height="69" viewBox="0 0 250 69" fill="none" xmlns="http://www.w3.org/2000/svg">
<path d="M0 54.553V67.974H5.33267V60.1579C7.78758 63.0342 10.9243 65.2364 14.4503 66.5591C17.9763 67.8819 21.7769 68.2822 25.4976 67.7226C29.2183 67.163 32.738 65.6618 35.7286 63.359C38.7191 61.0562 41.0831 58.0267 42.6002 54.553H36.6067C35.0926 57.0147 32.9811 59.0458 30.472 60.4542C27.9629 61.8627 25.1392 62.6018 22.268 62.6018C19.3969 62.6018 16.5732 61.8627 14.0641 60.4542C11.555 59.0458 9.4435 57.0147 7.92934 54.553H0ZM0 0H5.33267V31.0621C7.78758 28.1858 10.9243 25.9836 14.4503 24.6608C17.9763 23.3381 21.7769 22.9378 25.4976 23.4974C29.2183 24.057 32.738 25.5582 35.7286 27.861C38.7191 30.1638 41.0831 33.1933 42.6002 36.6669H36.6067C35.0926 34.2053 32.9811 32.1742 30.472 30.7658C27.9629 29.3573 25.1392 28.6181 22.268 28.6181C19.3969 28.6181 16.5732 29.3573 14.0641 30.7658C11.555 32.1742 9.4435 34.2053 7.92934 36.6669H0V0Z" fill="#EFE314"/>
<path d="M52.2559 54.553C53.7732 58.0267 56.1374 61.0561 59.1282 63.3589C62.1189 65.6617 65.6388 67.1628 69.3596 67.7224C73.0805 68.282 76.8811 67.8817 80.4073 66.559C83.9335 65.2363 87.0703 63.0341 89.5255 60.1579V67.9676H94.8582V54.5466H86.9774C85.4636 57.0088 83.3522 59.0404 80.8431 60.4492C78.334 61.858 75.5101 62.5974 72.6387 62.5974C69.7673 62.5974 66.9434 61.858 64.4343 60.4492C61.9252 59.0404 59.8138 57.0088 58.3 54.5466L52.2559 54.553ZM72.5796 23.2524C75.7859 23.2514 78.9547 23.9488 81.8695 25.297C84.7842 26.6452 87.3763 28.6124 89.4685 31.0642V23.2524H94.8011V36.6733H86.99C85.4759 34.2117 83.3644 32.1806 80.8553 30.7721C78.3462 29.3637 75.5225 28.6245 72.6513 28.6245C69.7802 28.6245 66.9565 29.3637 64.4474 30.7721C61.9383 32.1806 59.8268 34.2117 58.3127 36.6733H52.2559C53.985 32.6856 56.828 29.2926 60.4373 26.9091C64.0467 24.5256 68.2661 23.2549 72.5796 23.2524Z" fill="#EFE314"/>
<path d="M109.611 54.553H104.279V67.974H109.611V54.553ZM145.754 54.553H140.421V68.0273H145.751L145.754 54.553ZM109.611 23.2523H104.279V36.6733H111.566C112.91 34.2675 114.864 32.2655 117.228 30.8723C119.591 29.4792 122.279 28.745 125.016 28.745C127.753 28.745 130.441 29.4792 132.804 30.8723C135.168 32.2655 137.122 34.2675 138.466 36.6733H144.333C143.043 33.3511 140.932 30.4168 138.202 28.1492C135.472 25.8815 132.213 24.3557 128.734 23.7166C125.255 23.0776 121.672 23.3465 118.325 24.4979C114.978 25.6493 111.979 27.6449 109.611 30.2952V23.2523Z" fill="#EFE314"/>
<path d="M197.775 54.553H189.897C188.383 57.0147 186.271 59.0458 183.762 60.4542C181.253 61.8626 178.429 62.6018 175.558 62.6018C172.687 62.6018 169.863 61.8626 167.354 60.4542C164.845 59.0458 162.734 57.0147 161.219 54.553H155.234C156.751 58.0267 159.115 61.0562 162.106 63.359C165.096 65.6618 168.616 67.163 172.337 67.7226C176.058 68.2821 179.858 67.8819 183.384 66.5591C186.91 65.2364 190.047 63.0342 192.502 60.1579V67.9676H197.835V54.5467L197.775 54.553ZM197.775 0H192.443V31.0621C189.988 28.1858 186.851 25.9836 183.325 24.6608C179.799 23.3381 175.999 22.9378 172.278 23.4974C168.557 24.057 165.037 25.5582 162.047 27.861C159.056 30.1638 156.692 33.1933 155.175 36.6669H161.162C162.677 34.2053 164.788 32.1742 167.297 30.7658C169.806 29.3573 172.63 28.6181 175.501 28.6181C178.372 28.6181 181.196 29.3573 183.705 30.7658C186.214 32.1742 188.326 34.2053 189.84 36.6669H197.778L197.775 0Z" fill="#EFE314"/>
<path d="M207.396 54.553C208.913 58.0267 211.277 61.0561 214.268 63.3589C217.259 65.6617 220.778 67.1628 224.499 67.7224C228.22 68.282 232.021 67.8817 235.547 66.559C239.073 65.2363 242.21 63.0342 244.665 60.1579V67.9676H249.998V54.5467H242.117C240.603 57.0088 238.492 59.0404 235.983 60.4492C233.474 61.858 230.65 62.5974 227.778 62.5974C224.907 62.5974 222.083 61.858 219.574 60.4492C217.065 59.0404 214.953 57.0088 213.44 54.5467L207.396 54.553ZM227.778 23.2524C230.985 23.2515 234.153 23.949 237.068 25.2972C239.983 26.6454 242.575 28.6125 244.667 31.0642V23.2524H250V36.6733H242.119C240.605 34.2117 238.493 32.1806 235.984 30.7721C233.475 29.3637 230.652 28.6245 227.78 28.6245C224.909 28.6245 222.086 29.3637 219.576 30.7721C217.067 32.1806 214.956 34.2117 213.442 36.6733H207.457C209.179 32.682 212.019 29.2854 215.628 26.901C219.237 24.5166 223.458 23.2485 227.772 23.2524H227.778Z" fill="#EFE314"/>
<path fill-rule="evenodd" clip-rule="evenodd" d="M158.913 46.3578C158.688 46.1088 158.409 45.9162 158.098 45.7954C157.759 45.651 157.405 45.5466 157.042 45.4844C156.685 45.4098 156.35 45.331 156.044 45.2479C155.782 45.1814 155.531 45.0804 155.296 44.9475C155.217 44.8974 155.153 44.827 155.11 44.7435C155.067 44.66 155.047 44.5665 155.051 44.4725C155.045 44.358 155.07 44.244 155.124 44.1429C155.177 44.0418 155.257 43.9575 155.355 43.8994C155.671 43.7379 156.024 43.6644 156.377 43.6864C156.743 43.6649 157.107 43.7429 157.433 43.9122C157.545 43.9796 157.639 44.0726 157.709 44.1836C157.778 44.2946 157.821 44.4205 157.834 44.5513L157.849 44.6621H159.058L159.044 44.5193C159.021 44.2646 158.948 44.0171 158.83 43.7908C158.712 43.5645 158.55 43.3639 158.355 43.2007C157.88 42.8066 157.239 42.617 156.455 42.617C155.628 42.617 154.977 42.7789 154.526 43.1219C154.307 43.2866 154.132 43.5029 154.015 43.7516C153.899 44.0004 153.844 44.2742 153.856 44.5492C153.837 44.9124 153.958 45.269 154.194 45.544C154.428 45.7839 154.709 45.9706 155.02 46.0915C155.353 46.2248 155.698 46.3281 156.05 46.4004C156.417 46.4686 156.753 46.5474 157.059 46.6369C157.319 46.7 157.567 46.8089 157.79 46.9585C157.872 47.0085 157.94 47.0803 157.986 47.1663C158.031 47.2523 158.052 47.3491 158.047 47.4464C158.053 47.5987 158.008 47.7485 157.92 47.8725C157.817 48.0027 157.678 48.1003 157.521 48.1537C157.356 48.2176 157.184 48.2619 157.008 48.2857C156.813 48.3106 156.616 48.3227 156.419 48.322C156.215 48.3204 156.011 48.2888 155.816 48.2282C155.571 48.1541 155.352 48.0133 155.182 47.8213C155.03 47.6337 154.938 47.403 154.92 47.1609L154.908 47.048H153.69V47.1822C153.701 47.4808 153.776 47.7734 153.91 48.0397C154.044 48.306 154.234 48.5397 154.467 48.7246C154.992 49.1677 155.691 49.3828 156.552 49.3828C157.359 49.3828 158.013 49.2209 158.503 48.8822C158.745 48.714 158.94 48.4865 159.071 48.2212C159.202 47.9559 159.263 47.6614 159.251 47.3654C159.27 46.9983 159.149 46.6378 158.913 46.3578Z" fill="#EFE314"/>
<path d="M93.915 42.6275C93.5006 42.6241 93.0895 42.7036 92.7058 42.8616C92.322 43.0196 91.9731 43.2528 91.6793 43.5478V42.864H90.5498V51.5173H91.6793V48.4752C91.9731 48.7702 92.322 49.0035 92.7058 49.1615C93.0895 49.3194 93.5006 49.399 93.915 49.3955C94.3625 49.4069 94.8077 49.3277 95.2244 49.1627C95.6411 48.9978 96.0209 48.7503 96.3413 48.435C96.6618 48.1196 96.9165 47.7427 97.0904 47.3265C97.2643 46.9103 97.3538 46.4632 97.3538 46.0115C97.3538 45.5599 97.2643 45.1127 97.0904 44.6965C96.9165 44.2803 96.6618 43.9034 96.3413 43.5881C96.0209 43.2727 95.6411 43.0253 95.2244 42.8603C94.8077 42.6954 94.3625 42.6162 93.915 42.6275ZM93.915 48.3219C93.4597 48.3329 93.0115 48.2067 92.6276 47.9594C92.2437 47.7121 91.9416 47.355 91.7598 46.9336C91.5781 46.5122 91.5249 46.0457 91.6072 45.5937C91.6894 45.1417 91.9034 44.7246 92.2216 44.3959C92.5399 44.0672 92.9481 43.8416 93.394 43.7481C93.8399 43.6546 94.3033 43.6973 94.725 43.8708C95.1468 44.0444 95.5077 44.3408 95.7616 44.7223C96.0156 45.1038 96.1511 45.553 96.1508 46.0126C96.157 46.6177 95.9251 47.2007 95.506 47.6336C95.0869 48.0665 94.5147 48.314 93.915 48.3219Z" fill="#EFE314"/>
<path d="M106.856 43.1325H105.727V49.3999H106.856V43.1325Z" fill="#EFE314"/>
<path d="M106.856 40.885H105.727V42.0716H106.856V40.885Z" fill="#EFE314"/>
<path fill-rule="evenodd" clip-rule="evenodd" d="M121.618 43.1324H120.159L118.276 45.3969L116.382 43.1324H114.923L117.541 46.266L114.923 49.3997H116.382L118.276 47.1352L120.159 49.3997H121.618L119 46.266L121.618 43.1324Z" fill="#EFE314"/>
<path d="M136.482 46.0233C136.512 45.1353 136.192 44.2716 135.593 43.6203C134.934 42.9861 134.057 42.6323 133.146 42.6323C132.235 42.6323 131.359 42.9861 130.699 43.6203C130.1 44.2711 129.78 45.1352 129.811 46.0233C129.798 46.4659 129.874 46.9065 130.033 47.319C130.193 47.7314 130.433 48.1073 130.74 48.4242C131.062 48.7524 131.447 49.0098 131.873 49.1799C132.298 49.35 132.754 49.4293 133.212 49.4126C133.904 49.4427 134.588 49.2478 135.162 48.8566C135.664 48.5284 136.053 48.0534 136.279 47.4954L136.355 47.3036H135.01L134.97 47.3782C134.82 47.6768 134.579 47.9187 134.282 48.0684C133.951 48.22 133.59 48.2929 133.227 48.2814C132.726 48.3008 132.235 48.1351 131.846 47.8155C131.458 47.4959 131.198 47.0443 131.115 46.5452H136.497L136.482 46.0233ZM134.548 44.2743C134.866 44.5659 135.084 44.9526 135.169 45.3778H131.12C131.21 45.0266 131.386 44.7042 131.633 44.4406C131.88 44.1771 132.189 43.981 132.532 43.8708C132.874 43.7605 133.239 43.7397 133.592 43.8103C133.944 43.8809 134.273 44.0405 134.548 44.2743Z" fill="#EFE314"/>
<path d="M145.583 40.885H144.453V49.3999H145.583V40.885Z" fill="#EFE314"/>
</svg>
